<svg width="456" height="456" viewBox="0 0 456 456" fill="none" xmlns="http://www.w3.org/2000/svg">
<path d="M111.15 344.479C111.15 311.756 137.677 284.725 170.4 284.725H227.65V344.975C227.65 377.146 201.571 403.225 169.4 403.225C137.229 403.225 111.15 376.65 111.15 344.479Z" fill="#0ACF83"/>
<path d="M225.65 214.974C225.65 181.976 252.401 155.225 285.399 155.225C318.399 155.225 345.15 181.976 345.15 214.976V240.974C345.15 273.974 318.399 300.725 285.399 300.725C252.401 300.725 225.65 273.974 225.65 240.976V214.974Z" fill="#1ABCFE"/>
<path d="M111.15 227.975C111.15 268.154 143.721 300.725 183.9 300.725H227.65V155.225L183.9 155.225C143.721 155.225 111.15 187.796 111.15 227.975Z" fill="#A259FF"/>
<path d="M225.65 52.725V169.225H286.9C319.071 169.225 345.15 143.146 345.15 110.975C345.15 78.8044 319.071 52.725 286.9 52.725H225.65Z" fill="#FF7262"/>
<path d="M111.15 110.975C111.15 143.146 137.229 169.225 169.4 169.225H227.65V52.725L169.4 52.725C137.229 52.725 111.15 78.8044 111.15 110.975Z" fill="#F24E1E"/>
</svg>
