<svg width="400" height="400" viewBox="0 0 400 400" fill="none" xmlns="http://www.w3.org/2000/svg">
<path fill-rule="evenodd" clip-rule="evenodd" d="M18.7422 275.678C-6.2474 251.007 -6.2474 210.668 18.7422 185.998L86.7139 118.655C107.705 97.652 140.025 94.3181 164.681 108.987C172.345 113.321 172.345 123.656 166.014 129.99C159.683 136.324 149.688 135.657 141.025 133.324C130.029 130.323 118.034 132.99 109.371 141.325L41.3994 208.335C28.738 220.67 28.738 241.006 41.3994 253.341C54.0608 265.676 74.0525 265.676 86.7139 253.341L222.657 118.655C247.647 93.9848 288.297 93.9848 313.286 118.655L381.258 185.998C406.247 210.668 406.247 251.007 381.258 275.678C356.268 300.348 315.618 300.348 290.629 275.678L267.972 253.341L239.65 281.345C218.659 302.348 186.339 305.682 161.683 291.013C154.019 286.679 154.019 276.344 160.35 270.01C166.681 263.676 176.676 264.343 185.339 266.676C196.335 269.677 208.33 267.01 216.993 258.675L245.981 229.671C257.976 217.669 277.634 217.669 289.629 229.671L312.953 253.008C325.614 265.343 345.606 265.343 358.267 253.008C370.929 240.673 370.929 220.336 358.267 208.001L290.629 140.992C277.968 128.656 257.976 128.656 245.314 140.992L109.371 275.678C84.3815 300.681 43.7318 300.681 18.7422 275.678Z" fill="white"/>
</svg>
